<svg id="Zeichnungen" xmlns="http://www.w3.org/2000/svg" viewBox="0 0 63.93 60.34"><defs><style>.cls-1{fill:#425052;}</style></defs><path class="cls-1" d="M29.63,32l.21.12-.25-.16A.08.08,0,0,1,29.63,32Z"/><path class="cls-1" d="M27,53.89Z"/><path class="cls-1" d="M63,26.63c-2.42-6.56-10.09-7.31-16.14-6.39,14.87-17.38-8.31-30.16-16-9.81C21.76-8.85-.42,8.7,13.72,23-11,21.59,1.53,46.37,21.1,39.16c-12,18.17,5.36,30.93,14.21,11.34,11,15.93,29-2.21,11.61-12.65C55.2,40.46,67.36,37.66,63,26.63ZM33.58,22.31C35.53-5.87,59,6.4,36.31,23.55a3.41,3.41,0,0,0-2.74-1.11A.57.57,0,0,1,33.58,22.31ZM14.4,12.25C14.8,10,16.8,6.85,19.54,7a1.06,1.06,0,0,1,.26,0c10.77,4.1,5.48,12.82,8.5,15.13.2,1.75-2.41,1.92-3.13,3.51C20.75,22.27,14.23,18.59,14.4,12.25Zm5.78,21.66C15.35,35,6.65,36.69,5.39,30.07a.64.64,0,0,1,.11-.51c3.37-2.56,17.63-1.62,18.71,3A24.88,24.88,0,0,1,20.18,33.91ZM31.26,44.83c-.51,3.39-1.71,7-4.42,9.23l.19-.17c-1.38,1.36-4.13,1.17-4.62-.2a6.31,6.31,0,0,1-.23-.88c0-.07,0-.19,0-.28-.76-6,3.95-10.69,5.75-15.62C31.29,37.76,31.59,41.87,31.26,44.83Zm3.2-14.89c-.37,1.52-2.25,2.45-3.73,2.48a2.14,2.14,0,0,1-.89-.32l-.25-.16c-1.14-1-.9-2.68-.27-3.86v0a1.46,1.46,0,0,1,1.41-.76l-.14,0C32.09,27.84,34.25,28,34.46,29.94ZM47.73,45.75a5.3,5.3,0,0,1,1.38,3.16c-6.58,9-13-6.88-13.76-12.49C39.23,39.09,45.63,42.77,47.73,45.75ZM58.27,32.22a1.75,1.75,0,0,1-.8.62c-6,2.13-12-1.62-17.8-2.31a5.52,5.52,0,0,0-.3-2.68c5.66-2.42,19.48-6.13,19.19,3.68A1.38,1.38,0,0,1,58.27,32.22Z"/><path class="cls-1" d="M31,27.39l-.27-.05C31,27.41,31.05,27.41,31,27.39Z"/></svg>