<svg id="Zeichnungen" xmlns="http://www.w3.org/2000/svg" viewBox="0 0 55.24 55.4"><defs><style>.cls-1{fill:#425052;}</style></defs><path class="cls-1" d="M55.08,26.31C47.8-19.88-11.07.85,1.84,41.59,12,68.2,58.38,52.63,55.08,26.31ZM11.66,15.47A20.31,20.31,0,0,1,27.33,6.62c-.69,5.28-.57,10.81-1.64,16.12-7.56,2.11-12.54,7.72-18.78,12.49A28.06,28.06,0,0,1,11.66,15.47Zm10.2,33.29c-4.77-.32-9.38-2.14-12.17-6.25,4.77-4.6,8.8-9.07,14.62-12.18C23.23,36.21,21,42.56,21.86,48.76Zm4.8-.16c-1.08-5.46,1.21-11.86,2.25-17,2.41,4.85,4.32,10,8.6,13.43A30.25,30.25,0,0,1,26.66,48.6ZM45.79,37.67A22.21,22.21,0,0,1,43,41c-5.64-3.39-7.22-13.76-12.59-17.43.74-5.5,1.73-11.17,1.3-16.68a24.2,24.2,0,0,1,8.28,3C46.34,17.19,52.17,28.63,45.79,37.67Z"/></svg>