<svg xmlns="http://www.w3.org/2000/svg" viewBox="0 0 29.97 25.88"><defs><style>.cls-1{fill:#425052;}</style></defs><path class="cls-1" d="M22.77,4a8.64,8.64,0,0,0,0-.88,3.31,3.31,0,0,0-1-2.38A2.5,2.5,0,0,0,19.59,0a2.59,2.59,0,0,0-1.85,1.21,4.59,4.59,0,0,0-.56,2.82c0,.49-.07,1-.12,1.47-.23,1.58-.53,3.14-.7,4.72a2.8,2.8,0,0,0,4.77,2,3.26,3.26,0,0,0,.82-2L22,10c.2-1.37.45-2.73.63-4.11C22.69,5.25,22.75,4.62,22.77,4Z"/><path class="cls-1" d="M15.79,4c0-.14,0-.27,0-.4A3.84,3.84,0,0,0,15.34,2l-.43-.55L14.36,1A2.66,2.66,0,0,0,12.61.72a2.54,2.54,0,0,0-1.29.53,3,3,0,0,0-1,1.43A7.87,7.87,0,0,0,10.2,5c0,.44,0,.88-.1,1.31a15.16,15.16,0,0,1-.6,2.41,2.8,2.8,0,0,0,4.11,3.16,3.1,3.1,0,0,0,1.28-1.67,17.61,17.61,0,0,0,.8-3.8c.06-.52.1-1,.11-1.58C15.8,4.57,15.8,4.31,15.79,4Z"/><path class="cls-1" d="M25.86,16.73c-3.84,2.52-9,4.4-13.59,3.16A11.68,11.68,0,0,1,7.36,17.1,6,6,0,0,1,5.85,15s-.14-.49-.15-.57c-.09-.43,0-.06,0-.32a3.27,3.27,0,0,0-1-2.58,2.61,2.61,0,0,0-3.07-.4c-3.38,2-.77,7,1.09,9.18A17,17,0,0,0,10,25c6.14,2.13,13.45,0,18.69-3.48C31.68,19.59,28.88,14.75,25.86,16.73Z"/></svg>