<svg xmlns="http://www.w3.org/2000/svg" viewBox="0 0 354.33 352.64"><defs><style>.cls-1{isolation:isolate;}.cls-2{mix-blend-mode:multiply;}.cls-3{fill:#312783;}.cls-4{fill:#d35073;}.cls-5{fill:#c4ca74;}.cls-6{fill:#72a7a0;}.cls-7,.cls-8{fill:#da8f57;}.cls-8{stroke:#da8f57;stroke-miterlimit:10;stroke-width:0.5px;}</style></defs><g class="cls-1"><g id="Logo" class="cls-2"><path class="cls-3" d="M99.41,139.8Z"/><path class="cls-4" d="M44.32,198c2.69-2.69,6.68-7.41,4-12.09-4-7.15-10.35-13.06-13.54-17.73C22.08,149.47,24,145.65,17,130c-2.56-5.73-5.19-11.84-4.35-18.07a10.72,10.72,0,0,0,.19-3.82c-.29-1.25-2-4-2.73-2.17C8.87,109,1.63,138.53,3.73,139.58c11.82,5.87,17,22.57,17.61,36.62.2,3.5-9.71-8.93-11.34-15.35-.76-3-1.19-6.07-2-9-1.13-4-6.11-8.34-6.21-6.43-.24,7.93-2,23.37-1.35,24a48.64,48.64,0,0,1,15,32.75c.13,2.64-6.47-4.14-8.56-13.89C4.9,179.25.2,171.08.05,173.42c-.55,8.09,3.52,42,5.58,50.7a21.1,21.1,0,0,0,2.51,6.76,7.84,7.84,0,0,0,5.86,3.8c3.54.2,6-3,8.31-5.76,10-12.06,5.18-27.8,7.2-27.58C35.21,201.79,40.3,202,44.32,198Z"/><path class="cls-4" d="M186.39,47.42c-1.17-9.65,1.19-19.66.3-29.37-.72-7.8-5.13-13.32-12.31-16.44S159,.31,151.85,3.16c-18.21,7.26-15.95,17.58-15.46,23.47.5,6.13,1.43,12.38,4.33,17.82,6.39,12,14.49,13.77,26.95,29.36C171.78,79,177,85,178.29,88.78a34.57,34.57,0,0,1,1.39,11.73c-.07,2.75-.32,5.61-1.71,8s-4.24,4.11-6.91,3.4a6.31,6.31,0,0,1-3.88-3.52,14.09,14.09,0,0,1-1.12-5.26c-.4-6.92-2.78-19.85,3.83-19.36,2.29.17-10.44-18-19.22-20.06-4.06-1-4.66,6.66-5,10.83-.75,8.8-1.49,17.74.18,26.41s6.09,17.21,13.59,21.88c4.48,2.79,9.75,4,15,4.77s10.51.92,15.2-1.21c6.75-3.07,10.59-10.4,12.18-17.64a46.49,46.49,0,0,0-.71-22.57C198.32,76.5,192.46,68,185.8,60.44S171.6,46.2,164.71,38.87c-3.46-3.68-7-8.06-6.75-13.11A7.82,7.82,0,0,1,161,19.64a5.43,5.43,0,0,1,6.57.17c2,1.81,2,4.93,1.6,7.6s-1.65,6,.14,8.05A107.06,107.06,0,0,0,184,49.09C186.1,50.51,186.64,49.43,186.39,47.42Z"/><path class="cls-4" d="M236.72,60.22c5.05-2.08,13.57-20,21.14-29.08,1.47-1.75,3-3.71,2.95-6-.14-3.31-3.6-5.34-6.64-6.65-19.12-8.22-39.51-13-59.77-17.81-1.56-.37-3.5-.62-4.51.62a4.43,4.43,0,0,0-.51,3.35c1.71,15.17-5.23,48.25,9.52,52.5,4.47,1.29-2-14.16-.3-18.51,1.79-4.69,5.61-9,6.11-5.83a303.5,303.5,0,0,1-2,91.35c-.26,1.45-.49,3.06.31,4.3a6,6,0,0,0,3.35,2l9.45,3c1.3.42,2.75.83,4,.27,1.49-.66,2.09-2.41,2.48-4,3.32-13.49,2.42-27.6,2.37-41.5s3.3-21.19,6.73-40.94c.58-3.36.32-7.83,1.78-7.44,1,.32,2.81,1.42,2.92,2.49a10.74,10.74,0,0,1-.38,3.18c-1,4.88-4.06,14.56,1,14.65Z"/><path class="cls-4" d="M326.53,129.53c1.25-10.3,13.41-25.39-.75-45.61-2.9-4.15-5.59-9-10.44-10.45-4.6-1.37-9.7.36-13.39,3.44s-6.17,7.33-8.3,11.63c-4.09,8.29-7.14,17.11-12,25-4.45,7.17-10.44,13.61-12.88,21.69a28.93,28.93,0,0,0,1.38,19.9,32.32,32.32,0,0,0,13.57,14.75c3.91,2.21,8.49,3.66,12.91,2.8,5.08-1,9.09-4.79,12.6-8.59s6.81-7.9,7.14-12.9a14,14,0,0,0-3.61-9.93c-2.38-2.71-5.94-7.71-9.07-5.82-2.88,1.75-2.28,6.59-5.24,8.21s-7.05,1.2-9.22-1.37c-1.81-2.14-2-5.19-1.88-8a46.48,46.48,0,0,1,19.88-35.45c2.76-1.88,6.4-3.48,9.3-1.82s3.51,5.85,2.24,8.94c-3,7.21-16.24,8.85-16.27,12.18C302.43,125,325.13,141.12,326.53,129.53Z"/><path class="cls-4" d="M349.45,175.3c10.76-4.35.42-23.77,0-35.48,0-3.24-4.76,9.44-11.78,13.7-1-3.23.31-6.71,2-9.65s3.78-5.7,4.67-9c1.1-4,.21-8.37-1.6-12.11s-7.55-12.08-7.89-10a120.29,120.29,0,0,1-31.43,63.07c-.81.85-1.71,1.91-1.46,3.06s1.36,1.71,2.38,2.18l10.05,4.62c2.09,1,4.76,1.85,6.49.34a6.57,6.57,0,0,0,1.62-3.5,46.48,46.48,0,0,1,7.06-15.31l-.39,20.27c0,2,0,4.33,1.55,5.67a7.14,7.14,0,0,0,4.29,1.3l13,1a3.46,3.46,0,0,0,2.36-.38,2.39,2.39,0,0,0,.48-2.89,8.33,8.33,0,0,0-2.06-2.38,30.47,30.47,0,0,1-9.8-23C342.84,169.05,345.18,177,349.45,175.3Z"/><path class="cls-4" d="M142,71c-.64-13.65-3-27.58-9.86-39.38-2.39-4.08-5.24-8.51-9.72-10-14.19-4.77-21.44-2-27-.21S75.57,29,78.7,32.8C86.12,43,88.86,54.08,91.52,66.42,95.11,83.12,97,100.12,99,117.1c.86,7.54,1.2,17.73.5,22.65-.32,2.24,22.63-4.33,35.22-26.65C141.75,100.54,142.65,85.39,142,71Zm-26.61,33c-2.44,2.34-6.13-30.53-10-46.09-1-3.69,4.35-4.12,7.41-3.57a11.42,11.42,0,0,1,7.3,5.32,23.26,23.26,0,0,1,3,8.75C125.1,80.77,117.81,101.64,115.37,104Z"/><path class="cls-4" d="M86.76,60.31c-1.59-5.46-3.45-11.11-7.47-15.13a18.22,18.22,0,0,0-17-4.7,18.82,18.82,0,0,0-13,12.59c-5.44,12-5.89,25.77-3.64,38.74s7.07,25.34,11.85,37.61c1.7,4.37,3.41,8.75,5.4,13a24,24,0,0,0,5.18,7.8A10.36,10.36,0,0,0,76.82,153s0-.07-.09-.1A7,7,0,0,0,81.79,151a16.72,16.72,0,0,0,3.49-4.82c7-12.94,9.56-27.91,9.18-42.6S90.87,74.42,86.76,60.31Zm-12.46,67C71,128.84,70,112.73,66,107.9,50.49,89,60.25,79.1,67.35,80.62c7.86,1.69,10.05,6.82,8.56,22.48S77.62,125.79,74.3,127.31Z"/><path class="cls-4" d="M56.63,183.63a8.22,8.22,0,0,0,5.8-4.28,19,19,0,0,0,2-7.07c1.47-12-5.81-27.91-9.17-39.55s-8-22.9-11.86-34.4c-1.43-4.27-2.83-8.73-5.89-12.08S29.15,81,25.13,83.17a12.31,12.31,0,0,0-4.72,5.39c-5.92,11.26-4.68,24.82-1.76,37.16a111.51,111.51,0,0,0,11.5,30.14C35.55,165.23,51.23,184.13,56.63,183.63ZM34.3,121.22a4,4,0,0,1,1.18-2.64c1.48-1.17,3.64,0,4.9,1.46,2.84,3.16,8.52,17.23,9.37,21.39,1,4.87,1.51,15.28-.49,16.26C44.67,158.47,32.23,133.7,34.3,121.22Z"/><path class="cls-4" d="M290.48,48.67c-1.74-5.12-5.12-9.85-9.94-12.27-6.49-3.26-14.6-1.82-20.69,2.14S249.4,48.59,245.8,54.89c-11.74,20.51-16.8,44.38-17.23,68-.12,6.48.53,13.88,5.66,17.84,3.67,2.83,14,6.4,21.39-1.05,20.26-20.25,35.54-46.39,36.62-75C292.44,59.28,292.21,53.78,290.48,48.67ZM270.22,77c-1.84,14.79-8.44,28.73-17.51,40.55a1.25,1.25,0,0,1-2.14-.15,4.62,4.62,0,0,1-.51-2.9c.76-14.26,6.16-27.83,11.76-41,.86-2,2.11-4.3,4.27-4.48A4.09,4.09,0,0,1,270,71.86,10.84,10.84,0,0,1,270.22,77Z"/><path class="cls-5" d="M117.62,168.69a5,5,0,0,1-3.26,4.88,9.06,9.06,0,0,1-6.16-.09,16,16,0,0,1-9.75-21.66c2.43-5.53,7.76-9.22,13.22-11.8s11.33-4.36,16.44-7.58c3.37-2.12,6.46-4.89,10.29-6,6.48-1.87,13.73,1.82,17.17,7.62s3.48,13.15,1.41,19.57-6,12-10.34,17.23c9.64-2.86,20.53-2.06,29.14,3.14s14.52,15,14.07,25.06c-.33,7.3-3.89,14.24-9,19.44a47,47,0,0,1-18.7,11.06c-4.27,1.42-9.1,2.36-13.16.41-3.53-1.69-5.75-5.21-7.78-8.55a87.32,87.32,0,0,0-8.81-12.7c-1.43-1.55,1.84-5.22,4.45-6.06s5.42-.49,8.17-.45a34.7,34.7,0,0,0,12.43-2.13c2.6-1,5.3-2.44,6.29-5,1.16-3-.46-6.47-3-8.46a11.33,11.33,0,0,0-17.65,4.88c-1.06,2.79-1.63,6.62-4.57,7.13-2.21.39-4.07-1.58-5.41-3.39a139.51,139.51,0,0,1-9.46-14.56c-1-1.83-2-4.06-1.1-5.93s3.54-2.44,5.71-2.89a22.75,22.75,0,0,0,12.12-6.46,15.06,15.06,0,0,0,4-12.84c-.92-4.56-4.77-8.56-9.39-9-5.28-.56-10,3.16-13.55,7.11a21.55,21.55,0,0,0-4.87,7.73C115.67,161.26,117.12,164.37,117.62,168.69Z"/><path class="cls-5" d="M242.46,250.93a297.73,297.73,0,0,0,27.1-39.51c2.2-3.83,4.39-8.2,3.28-12.48-1.43-5.5-7.5-8.2-12.85-10.14-4.36-1.58-9.89-2.91-13.09.44a12.05,12.05,0,0,0-2.1,3.63q-10.2,23.46-20.38,46.91c-.7,1.6-1.4,3.33-1,5,.57,2.46,3.16,3.81,5.53,4.68C233.59,251.2,241.18,252.33,242.46,250.93Z"/><path class="cls-5" d="M281.57,188.52c4.36-1.05,10.71-5.69,8.33-9.5-3.94-6.3-14.34-5.36-18.91-11.22-3.1-4-4.59-9-7.35-13.21s-7.7-7.84-12.57-6.5c-4.51,1.26-7,6.24-7.55,10.89-.88,7,3.44,17.85,14.45,23.1C264.35,185.13,277.2,189.57,281.57,188.52Z"/><path class="cls-5" d="M92,202.55c2.78-17.92,18.34-25.68,14.91-26.1a18.17,18.17,0,0,1-15.76-16.9c-.06-1.92-.55-4.63-2.46-4.46a3.17,3.17,0,0,0-2,1.55,52.31,52.31,0,0,0-8.46,43.14c.34,1.45-12.38-9.34-28.23-2.24-.93.42-2,1-2.16,2a3.27,3.27,0,0,0,.69,2.19c4.63,7.67,14.4,22.75,16,19.59,4.73-7.39,18.65-11,19.07-10,3.45,9.25,3,21-2.41,29.27-1.78,2.71-4.28,4.13-4.08,7.36.33,5.46,9.87,13.2,11.51,12,22.64-18.6,7-41.16,9.15-41.25,5.23-.23,17.57,19.22,25,15.95,6.56-2.87,17-8.61,12.29-11.62C118.7,212.45,123.29,190.54,121,192s-3.8,6.94-6.43,10.11C108.15,209.86,100.92,200.32,92,202.55Z"/><path class="cls-5" d="M72.53,225c-3.41,3.5-10.05,11.33-10.86,9.45a114.91,114.91,0,0,0-19.31-30.64c-2.19-2.68-5.41,3-6.65,5.84-9,20.3-8.77,43.5-5.91,65.53a10.89,10.89,0,0,0,1.64,5.23c1.12,1.48,3.4,2.37,4.87,1.26C49.2,272,50.52,264.22,56.63,254.61c3.79-6,9.3,5.18,11,12.49.24,1,.59,2.23,1.59,2.59a2.77,2.77,0,0,0,1.91-.2c3.43-1.31,12.54-5.42,9-8.38-6.8-5-10.71-14.53-12.41-15.83s7.34-6.16,10.32-8.8c1-.91,3-3,2.63-5.08C80.38,229.07,79.84,217.51,72.53,225ZM38.64,257.28c-2.2-3.53-.6-18.13,4.13-26.19,3.41-5.82,6.81,3.36,10.64,10.59C55.15,245,42.87,264.07,38.64,257.28Z"/><path class="cls-5" d="M217.35,136.25c-7.77-2.6-17-2.36-23.57,2.4-6.36,4.64-9,12.71-8.95,20.32s2.48,15,4.5,22.35,3.69,15,2.28,22.53c-1.18,6.24-4.48,12.18-4.25,18.52a16.52,16.52,0,0,0,8.06,13.51,16,16,0,0,0,16.14-.14c3.89-2.49,6.17-6.62,8.3-10.59,6.4-11.92,12.84-23.92,16.87-36.75s5.56-24.41,1.09-37.05C234.69,143.76,225.12,138.85,217.35,136.25Zm6,38.18A68.55,68.55,0,0,1,209.07,213c-2.61,3.57-3.58-23.1-4.54-35.72-.29-3.81-.53-7.87,1.34-11.2a9.67,9.67,0,0,1,7.91-4.89,9.19,9.19,0,0,1,8.12,4.44C223.42,168.21,223.48,171.41,223.32,174.43Z"/><path class="cls-4" d="M76,285.62c-3.6-2.36-6-4.9-7.26-9-.89-3.2,11.63-7,18.26-7.32,5.18-.26,11.35,1.33,13.11,6.22,1.26,3.48-.34,7.49-3,10.09s-11,5.58-9.54,5.57c7.58-.14,15.32,3.86,18.8,10.6s1.92,15.94-4.12,20.52c-5.14,3.88-12.39,4-18.44,1.77s-11.13-6.42-15.94-10.7q-9.94-8.85-19.1-18.56a4.62,4.62,0,0,1-1.52-2.61c-.14-1.69,1.43-3.05,3-3.81,5.62-2.85,12.24-9.18,12.34-7.54a37.75,37.75,0,0,0,11.63,23.46,13.88,13.88,0,0,0,6.28,3.77c2.42.53,5.25-.21,6.58-2.29,1.64-2.57.4-6.17-1.92-8.13s-8-.71-8.51-4c-.59-3.55,5.34-4.81,8-7.21A10.78,10.78,0,0,0,87.43,283a3.7,3.7,0,0,0-.5-4.14c-1.24-1.18-3.34-.9-4.74.09a15.59,15.59,0,0,0-3.3,3.91C77.89,284.29,76.81,286.16,76,285.62Z"/><path class="cls-4" d="M138.33,248.24c2.06-.33,1.23-4.15.28-6-1.13-2.24-3.05-4-5.12-4.2s-3.8.95-5.44,2.07q-13.31,9.18-26.63,18.34c-1.3.89-2.71,1.93-3,3.47a6.38,6.38,0,0,0,.34,3.11c1.35,4.74,3,13.91,7.56,15.87,6.36,2.75,2.35-19.56,9.27-19.42,11,.22-11.25,28.69-3.44,42.41,2.68,4.72,11.69,2.91,16.86,1.26,1.86-.59,3.87-1.52,4.56-3.35a7.21,7.21,0,0,0-.28-4.39c-2.87-10.25-4.91-16.55-7.78-26.79-1.12-4-2.23-8.38-.73-12.27C126.79,253,136.51,248.53,138.33,248.24Z"/><path class="cls-4" d="M161.19,245.09c-4.46-2.65-5.9.23-11.35-.73a3.78,3.78,0,0,0-2.38.28c-1.1.59-1.19,1.89-1.16,3l.14,5.8a4.53,4.53,0,0,0,.74,2.85,4.31,4.31,0,0,0,3.47,1.28,10.57,10.57,0,0,0,3.76-1c2.83-1.19,5.55-2.85,6.87-5.26S163.66,246.56,161.19,245.09Z"/><path class="cls-4" d="M141.4,254.48a2.09,2.09,0,0,0-2.27-1.7,3.19,3.19,0,0,0-1.83,1.31,32,32,0,0,0-4.73,7.72c-1.09,2.52-1.62,5.95.59,7.59,2,1.52,5,.33,6.92-1.36a10.56,10.56,0,0,0,3.75-6.56C144.11,258.92,141.67,257.15,141.4,254.48Z"/><path class="cls-4" d="M199.79,257.1a20,20,0,0,0-23.19-7c-2.92,1.17-5.68,3.26-6.66,6.24-.83,2.51-.29,5.23.25,7.82l3.9,18.53c.58,2.76,1.32,5.77,3.57,7.45,3.07,2.3,7.76.95,10.26-2s3.29-6.89,3.74-10.69c.43-3.56.31-7.84-2.66-9.84a5.31,5.31,0,0,0-5.78,0,4.56,4.56,0,0,0-2.27,4.8c.28,1.1,4.63-2.4,5.81,2a2.64,2.64,0,0,1-1.82,3,4.73,4.73,0,0,1-3.69-.54,7.76,7.76,0,0,1,6.59-14c1.23.49,2.34,1.29,3.6,1.69a6.27,6.27,0,0,0,6.24-1.59C199.24,261.35,200.89,259,199.79,257.1Z"/><path class="cls-4" d="M166.81,270.67a29.26,29.26,0,0,0-3.65-7.26,10,10,0,0,0-6.75-4.14c-4.57-.41-8.33,3.35-11.36,6.79-3.78,4.29-7.71,8.91-8.54,14.55-.5,3.41.18,6.87.87,10.24.63,3.11,1.27,6.22,1.9,9.33a9,9,0,0,0,1.62,4.18,6.08,6.08,0,0,0,5.85,1.59c2.08-.44,5.91-1.38,8.48-4.93,1.26-2.1-4-2.87-4.28-10.7-.14-3.87,3-11.34,4.35-10,2.5,2.51,2.56,6.45,2.83,10s1.4,7.62,4.71,8.86c3,1.11,6.39-.83,7.88-3.61s1.42-6.13.93-9.25C170.8,280.88,168.8,275.75,166.81,270.67Zm-9.46,2.48c-1,1.13-2.7.9-4,1.54-3,1.52-3.06,5.55-6.09,4.13-1.26-.6-1.66-2.41-1.31-3.81a6.85,6.85,0,0,1,2.39-3.47,13.47,13.47,0,0,1,6.11-3,3.45,3.45,0,0,1,3,.5C158.57,270.07,158.31,272,157.35,273.15Z"/><path class="cls-6" d="M120.18,335.19c-.49,1.05-9.67,3-11.45,1.23-7.62-7.49,2.14-19.91,4.78-22.33,6.14-5.59,18.08-9.38,24.73-3.36,3,2.76,2.29,8.28,1.31,11.2-1.77,5.31-7.87,11-6.8,16.54,1.86,9.61,11.83-11.94,14.69-10.24s3.54,8.39,5.87,12c4.89,7.6-6,6.07-11.79,9-16.11,8.24-17.52-.51-19.11-6.11-4.19-14.72,12.73-16,7-22.79-1.94-2.33-7.22.28-8.47,1-2.18,1.19-2.84,4.06-2.65,6.53C118.42,329.41,120.47,334.59,120.18,335.19Z"/><path class="cls-6" d="M171.9,345.63a6,6,0,0,0-.51-6.06c-5.73-9-6.82-19-5.22-17.95,10.13,6.22,10.25,19,15.82,27.09.91,1.31,3,2.84,4.64,2.63,4.16-.54,3.4-6.39,3.46-8.46.37-12.81-1.24-25.15-3.37-37.78a10.45,10.45,0,0,0-1.92-5.24c-2.92-3.41-8.4-2-12.55-.24-2.13.89-4.49,2-5.2,4.21-1.6,4.89,6.39,9.17,4.73,14-.66,1.71-3.35-5.8-9-8.86a13.68,13.68,0,0,0-13.58.61c-3.95,2.56-2.66,7.12,0,11,1.89,2.82,5.45,4.36,7.62,7,4.13,5,.32,12.93,4.63,17.76C167.17,351,170.68,348.18,171.9,345.63Z"/><path class="cls-6" d="M190.18,289.53a5.9,5.9,0,0,0,1,5.74,5.19,5.19,0,0,0,4.88,1.26,9,9,0,0,0,6.46-9.25C201.8,281.14,193.11,279.59,190.18,289.53Z"/><path class="cls-6" d="M205.79,288.41c-1-2,1.51-5.23-3.29-8.25s-1.93-9.13-1.34-10.22c2.48-4.58,14-8.6,16.38-1.21a36.34,36.34,0,0,1,1.62,7.28,13,13,0,0,1-3.64,9.83C212.92,288.34,207.17,291.24,205.79,288.41Z"/><path class="cls-6" d="M237.43,258.76c-1.93-2.66-5.93-3.27-8.91-1.87a11.53,11.53,0,0,0-5.79,7.61,27.61,27.61,0,0,0-.36,9.81A94.62,94.62,0,0,0,228,298.24c1.17,3.09,2.75,6.38,5.77,7.71,4.28,1.89,9.08-1,12.58-4.13s6.85-6.65,8.65-11,1.81-9.66-.94-13.48-8.61-5.38-12.42-2.61c.59,2.3,1.17,4.75.4,7s-3.46,4-5.55,2.88c-1.63-.87-2.14-2.92-2.47-4.74-.38-2-.74-4.17-.06-6.11s2.82-3.55,4.77-2.88C241.56,266.54,239,260.93,237.43,258.76Z"/><path class="cls-6" d="M251.31,244.83c-3.34-.19-4.92,7.6-5.36,11-1.14,8.91,9.84,15,14.77,22.55,1.47,2.24.48,4.42,3.16,4.62,3.4.25,8-6,7.57-9.38s-2-3.53-4.29-6-5.37-4.09-5.36-7.17a3.72,3.72,0,0,1,5.38-3.39c2.16,1.22,3.29,3.62,4.57,5.74s3.18,4.27,5.66,4.3c3.75.5,6.7-3.8,6.33-7.56s-2.9-6.91-5.33-9.8l-8.08-9.66c-1.95-2.32-4.06-4.76-7-5.67s-6.74.5-7.24,3.49c-.75,4.48,5.65,6.84,7,11.19.93,3.05-2.07,5.2-4.35,6C253,257.29,254.66,245,251.31,244.83Z"/><path class="cls-6" d="M290.42,235.23c2.32-6.17-1.23-6-3.6-7.74-3.41-2.46-4.28-3.39-7.42-5.92-2.67-2.14,7.5-13.39,10.1-17.2,1.54-2.25,3.06-5.37,1.32-7.45-1.06-1.27-9-4-10.44,1.8-1,4.11-3,10.13-5.78,13.3-8.83,10-10.08,10.38-11.36,16.12-.72,3.27,1.5,6.87,4.77,6.14,2.94-.66,4.55-7.36,5.82-6.92s8.08,18,14.67,16.83C292,243.59,288.85,239.39,290.42,235.23Z"/><path class="cls-6" d="M226.74,304.58a12.44,12.44,0,0,0-5.06-10.36c-3.81-2.56-8.91-1.3-13.29.06s-9.23,3-12,6.69c-3.07,4.08-3,9.63-2.85,14.73q.45,12.8.89,25.58c.08,2.17.21,4.49,1.5,6.24,2.58,3.49,8.51,2.45,11.24-.92s3.13-8,3.27-12.35-1.42-8.1,2.49-12.62,4.6,20.24,7.91,21.83,18.61-1.6,18.62-3.82S226.34,326.54,226.74,304.58Zm-15.34,9.95c-5.36.11-9.37-3-5.07-8.27s10.33-4.84,12.31,0S216.76,314.42,211.4,314.53Z"/><path class="cls-7" d="M256,301.31c10.12.47-4.11,10.58,10.26,27.48,1.21,1.34-6.58.82-9.41,5.08-1.19,1.8-5-11.12-7.3-16.85l-3.68,7.85a4.23,4.23,0,0,1-1.93,2.36c-1.4.56-2.9-.49-4-1.48a8.64,8.64,0,0,1-3-3.78,2.3,2.3,0,0,1,.11-1.84C237.3,319.59,248.27,301,256,301.31Z"/><path class="cls-7" d="M283,282.75c-.78-2.94-3.11-6.14-6.1-5.57-1.84.34-3.06,2.54-5.46,5.88s-9,7.35-9.92,12.78c-.44,2.5.51,5,1.44,7.37l5.19,13.19c.79,2,2.61,4.84,4.67,4.73s6-5.52,4.88-7.5a32.09,32.09,0,0,0-3.51-5.13c-1.45-1.75-3.67-4.76-2.4-5C281.19,300.6,285.53,292.22,283,282.75Zm-13.29,13.93a4.15,4.15,0,0,1-.4-4.08,10.39,10.39,0,0,1,2.88-3.46,6.79,6.79,0,0,1,2.44-1.61,2.29,2.29,0,0,1,2.62.81,2.9,2.9,0,0,1-.1,2.55C275.92,293.92,270.8,297.68,269.75,296.68Z"/><path class="cls-7" d="M298.77,277.67c-2.8-2.85-4.6-6.5-6.45-10-.95-1.82-2.2-3.83-4.23-4.14-2.91-.44-6,4.52-5.63,7.45.87,6.84,5,18,2.84,23.21-1.08,2.59-2.42,5.13-2.76,7.92s.32,6.86,3.1,7.28c8.81,1.36,6.69-4.37,6-6.23a20.46,20.46,0,0,1-1.13-5.69,8.91,8.91,0,0,1,2.68-6.74,4.61,4.61,0,0,1,2.5-1.73c1.57-.25,2.92,1.14,3.66,2.55s1.25,3,2.52,4c2.48,1.89,6.44-.3,7.13-3.35s-1-6.16-3.18-8.38S301,279.9,298.77,277.67Zm-6.46,7.38c-2.64,0-3-5.76-4.23-8.16a2.14,2.14,0,0,1-.38-1.44,1.45,1.45,0,0,1,1.44-1,2.7,2.7,0,0,1,1.92.93l4.33,4.25c.88.86,1.78,1.78,1.81,2.8S294.26,285.05,292.31,285.05Z"/><path class="cls-7" d="M328,255.61c-2-1-5-1.57-5.7-.14s-3.31,4.24-4.19,5.59c-3.18,4.9-8.78,4.15-10.58,2.41-2.79-2.7,6-7.29,6.87-11.07s0-9.22-7.26-13.42c-4.53-2.65-10.77.71-13.13,2.73s-3.68,5-4.87,7.86c-.87,2.09-1.73,4.31-1.38,6.54.39,2.45,2.18,4.42,3.88,6.22l18.8,19.92a4.82,4.82,0,0,0,2.92,1.86,3.25,3.25,0,0,0,2.95-2c.54-1.14,1.91-3.07.17-4.18l-5.92-4.32c-.62-.45-1.3-1-1.31-1.77s.91-1.54,1.79-1.58a6.78,6.78,0,0,1,2.56.62c6.87,2.36,15.27-2.16,17.08-9.19A5.18,5.18,0,0,0,328,255.61Zm-21.87-2.45c-.32,1.91-2.91,6.54-4.63,7.43-2.24.67-4.68-2.43-6.18-3.85s-.88-2.83-.25-4.79c1-3.12,4.33-7.55,9.22-4A5.44,5.44,0,0,1,306.12,253.16Z"/><path class="cls-7" d="M331.85,253c-2.76,0-15.83-8.6-20.44-17.36-1-1.91-2.27-8.51-4.22-7.58-1.48.7-1.56,2.71-2,4.27a6.81,6.81,0,0,1-5.11,4.62c-2.37.46-6,0-6.46-2.37-1.55-7.45,3-15,2.92-22.55,0-3.68-.28-7.49,1-10.95s4.71-6.45,8.35-5.89c3.29.52,5.58,3.76,6.16,7s-.17,6.62-.78,9.89-1.08,6.72,0,9.86c1,2.88,3.22,5.15,5.37,7.32,4.31,4.36,7.83,9.15,19.61,11.95C338.91,241.91,335.55,253,331.85,253Z"/><path class="cls-7" d="M334.89,206.2a19.6,19.6,0,0,1-9.1-13.94c-.15-1.17-.32-2.55-1.36-3.09s-2.23.08-3.15.76a17,17,0,0,0-6.7,14.22,4.94,4.94,0,0,0,1.2,3.41c1.34,1.28,3.47,1,5.27,1.41a6.31,6.31,0,0,1,1.58,11.67c-.49-1.66.06-4.85-1.16-6.08s-5.81-3.49-6.91,2.66c-.93,5.16,1.92,11,7.1,11.82S332.14,225.18,332,220c0-1.62-.52-3.25-.2-4.83s1.9-3.12,3.41-2.54A3.42,3.42,0,0,1,337,215a13,13,0,0,1-4,13.12,8.24,8.24,0,0,0-2.43,2.53c-1,2.08.77,4.65,3,5.29a7.41,7.41,0,0,0,7-2.24,18,18,0,0,0,3.76-6.71,65.41,65.41,0,0,0,2.88-10.67,14.81,14.81,0,0,0,.21-5.74,5.85,5.85,0,0,0-3.41-4.36C340.64,205,336.63,207.25,334.89,206.2Z"/><path class="cls-8" d="M140.66,230c-2.86-5.32-10.3,1.21-7.37,5.5C136.64,239.89,143.6,234.53,140.66,230Zm-2.38,3.53c-1.24,1.8-3.19.58-2.79-1.05C136.12,230,139.77,230.5,138.28,233.56Z"/><path class="cls-8" d="M149.55,233.94c-1.1-2.94-4.27-3.71-5.74-2.43-3,2.14-.54,7,2.94,6.13-.55,2.4-4.47,3.37-5.11,4.56C138.27,248.49,152.24,242,149.55,233.94Zm-3.3,1.46c-.61.1-1.64-.73-1.55-1.42a1.15,1.15,0,0,1,.86-.88c.45-.14,1.45-.27,1.73.42A1.64,1.64,0,0,1,146.25,235.4Z"/><path class="cls-7" d="M153,240.21c-.2-2-3.39-1.26-3.1.53C150.08,242.7,153.27,242,153,240.21Z"/><path class="cls-8" d="M163.06,236.13c-.73-1-1.55-.6-4.13-.93s-4.6-2.1-5.52.13C152.33,237.91,166,240.12,163.06,236.13Z"/><path class="cls-8" d="M168.26,231c-1-1.81-3.13-.3-4.4.32a1.4,1.4,0,1,0,1.38,2.43l.32-.15c0,.39-.08.79-.13,1.19-.13,1.06-.27,2.11-.4,3.17a27.59,27.59,0,0,0-.25,6.35,1.39,1.39,0,1,0,2.77,0,40.16,40.16,0,0,1,.09-4.52c.13-1.51.34-3,.52-4.51.09-.73.18-1.47.25-2.2A3.51,3.51,0,0,0,168.26,231Z"/><path class="cls-8" d="M174.14,226.62c-1.52.92-2.69,1.54-4.21,2.46s-.16,3.36,1.38,2.43c.58-.35.81-.4,1.38-.75a75.85,75.85,0,0,0-2.1,15.57,1.4,1.4,0,0,0,2.79,0,73,73,0,0,1,2.8-18.14A1.41,1.41,0,0,0,174.14,226.62Z"/><path class="cls-7" d="M177.68,245c-.75-2-3.8-.57-2.76,1.28C175.78,247.87,178.41,246.69,177.68,245Z"/><path class="cls-8" d="M182.13,235.11c-5.2-1.27-7,4.42-4,7.25C183.54,247.45,189.3,236.91,182.13,235.11Zm.56,4.71c-1.62,3-4.45-1.42-2.44-2.41C181.07,237,183.25,238.15,182.69,239.82Z"/><path class="cls-8" d="M195.46,242.24a2,2,0,0,0-.65-.68,5.77,5.77,0,0,0-.58-.22l-.85-.32-1.47-.54q.6-1.23,1.26-2.43a1.42,1.42,0,0,0-.53-1.9l-3.95-2.06c-1.6-.82-3,1.6-1.38,2.43l2.77,1.44c-.27.52-.52,1-.77,1.56l-1.16-.43a1.41,1.41,0,0,0-1.71,1,1.44,1.44,0,0,0,1,1.71l.72.26a34.27,34.27,0,0,0-1.87,4.53,1.41,1.41,0,0,0,2.69.84,35,35,0,0,1,1.77-4.41l.09,0,1.7.63a3.38,3.38,0,0,0,2.14.42A1.28,1.28,0,0,0,195.46,242.24Z"/><path class="cls-7" d="M195.13,247.35a1.56,1.56,0,1,0-3,.69C192.55,250,195.63,249.27,195.13,247.35Z"/><path class="cls-8" d="M203.64,249c-.82-.28-1.66-.52-2.5-.75.39-.28.77-.58,1.13-.89a5.65,5.65,0,0,0,2.26-3.6,3.55,3.55,0,0,0-2.36-3.29,3.07,3.07,0,0,0-4.44,1.66,1.4,1.4,0,0,0,1,1.71c.81.17,1.27-.4,1.55-1.13s2.06.55.92,1.8a10.84,10.84,0,0,1-.84.82c-.15.14-.3.26-.46.39l-.21.17,0,0c-.3.22-.61.43-.93.62a5.89,5.89,0,0,0-1.1.74,1.81,1.81,0,0,0,.22,2.91,5.62,5.62,0,0,0,1.35.44l1.13.33c.87.25,1.73.54,2.6.74a1.43,1.43,0,0,0,1.7-1A1.44,1.44,0,0,0,203.64,249Z"/><path class="cls-8" d="M213.07,246.26c-1.56-5.37-8.74-2.37-7.15,2S214.39,250.89,213.07,246.26Zm-4.07,2.3c-1.07-.43-.89-2.6-.07-2.82C210.91,245.21,211.6,249.34,209,248.56Z"/><path class="cls-8" d="M218.94,248.11a2.81,2.81,0,0,0-4.15-.66,1.41,1.41,0,0,0,0,2,1.48,1.48,0,0,0,1.46.06c.61-.19,1.75,1.21-1.48,1.78-1,.18-3.05.54-4,.77s-1.5,1.68-.63,2.34,1.79,1.33,2.72,1.93c.42.27.84.53,1.27.78.6.35,1.33.88,2.05.59a1.31,1.31,0,0,0,.9-1.55c-.14-.75-.85-1-1.44-1.4-.41-.23-.81-.48-1.2-.73.23-.06.46-.11.68-.18,1.27-.37,3-.9,3.72-2A3.68,3.68,0,0,0,218.94,248.11Z"/><path class="cls-8" d="M227,251.75l-5.59-.54a1.4,1.4,0,1,0,0,2.79l1.89.18c-1,.82-2,1.68-2.94,2.59s-1.74,1.76-2.55,2.68c-.39.46-.78.92-1.15,1.39-.5.63-1.19,1.28-1.17,2.13a1.29,1.29,0,0,0,1.59,1.23c.76-.2,1.1-.82,1.55-1.38s.76-.94,1.16-1.39c.79-.91,1.61-1.78,2.48-2.62a40.24,40.24,0,0,1,5.42-4.44A1.42,1.42,0,0,0,227,251.75Z"/></g></g></svg>